<?xml version="1.0" encoding="UTF-8" standalone="no"?>
<!DOCTYPE svg PUBLIC "-//W3C//DTD SVG 1.1//EN"
 "http://www.w3.org/Graphics/SVG/1.1/DTD/svg11.dtd">
<!-- Generated by graphviz version 7.0.5 (20221223.1930)
 -->
<!-- Title: workflow Pages: 1 -->
<svg width="403pt" height="88pt"
 viewBox="0.00 0.00 402.53 87.53" xmlns="http://www.w3.org/2000/svg" xmlns:xlink="http://www.w3.org/1999/xlink">
<g id="graph0" class="graph" transform="scale(1 1) rotate(0) translate(4 83.53)">
<title>workflow</title>
<polygon fill="white" stroke="none" points="-4,4 -4,-83.53 398.53,-83.53 398.53,4 -4,4"/>
<!-- place_a786187f18abff07a21c272442bc3d3d0354004b -->
<g id="node1" class="node">
<title>place_a786187f18abff07a21c272442bc3d3d0354004b</title>
<ellipse fill="lightblue" stroke="#333333" cx="36" cy="-39.76" rx="36" ry="36"/>
<text text-anchor="middle" x="36" y="-37.56" font-family="Arial" font-size="9.00">CREATED</text>
</g>
<!-- place_597bc3e9606c3120f2e5cd2feebe0e1e8a64e58b -->
<g id="node3" class="node">
<title>place_597bc3e9606c3120f2e5cd2feebe0e1e8a64e58b</title>
<ellipse fill="none" stroke="#333333" cx="193.76" cy="-39.76" rx="39.53" ry="39.53"/>
<text text-anchor="middle" x="193.76" y="-37.56" font-family="Arial" font-size="9.00">VERIFIED</text>
</g>
<!-- place_a786187f18abff07a21c272442bc3d3d0354004b&#45;&gt;place_597bc3e9606c3120f2e5cd2feebe0e1e8a64e58b -->
<g id="edge1" class="edge">
<title>place_a786187f18abff07a21c272442bc3d3d0354004b&#45;&gt;place_597bc3e9606c3120f2e5cd2feebe0e1e8a64e58b</title>
<path fill="none" stroke="#333333" d="M72.34,-39.76C94.67,-39.76 123.73,-39.76 147.71,-39.76"/>
<polygon fill="#333333" stroke="#333333" points="147.49,-41.51 152.49,-39.76 147.49,-38.01 147.49,-41.51"/>
<text text-anchor="middle" x="113" y="-42.56" font-family="Arial" font-size="9.00">verify</text>
</g>
<!-- place_fcc4cce12177701ec0c8ab248fb9e86dff8f83f4 -->
<g id="node2" class="node">
<title>place_fcc4cce12177701ec0c8ab248fb9e86dff8f83f4</title>
<ellipse fill="none" stroke="#333333" cx="358.53" cy="-39.76" rx="36" ry="36"/>
<text text-anchor="middle" x="358.53" y="-37.56" font-family="Arial" font-size="9.00">BLOCKED</text>
</g>
<!-- place_fcc4cce12177701ec0c8ab248fb9e86dff8f83f4&#45;&gt;place_597bc3e9606c3120f2e5cd2feebe0e1e8a64e58b -->
<g id="edge3" class="edge">
<title>place_fcc4cce12177701ec0c8ab248fb9e86dff8f83f4&#45;&gt;place_597bc3e9606c3120f2e5cd2feebe0e1e8a64e58b</title>
<path fill="none" stroke="#333333" d="M323.57,-29.41C317.29,-27.89 310.75,-26.57 304.53,-25.76 281.17,-22.73 274.91,-22.92 251.53,-25.76 247.16,-26.29 242.65,-27.04 238.16,-27.93"/>
<polygon fill="#333333" stroke="#333333" points="238.1,-26.15 233.56,-28.89 238.81,-29.58 238.1,-26.15"/>
<text text-anchor="middle" x="278.03" y="-28.56" font-family="Arial" font-size="9.00">unblock</text>
</g>
<!-- place_597bc3e9606c3120f2e5cd2feebe0e1e8a64e58b&#45;&gt;place_fcc4cce12177701ec0c8ab248fb9e86dff8f83f4 -->
<g id="edge2" class="edge">
<title>place_597bc3e9606c3120f2e5cd2feebe0e1e8a64e58b&#45;&gt;place_fcc4cce12177701ec0c8ab248fb9e86dff8f83f4</title>
<path fill="none" stroke="#333333" d="M233.75,-39.76C258.54,-39.76 290.63,-39.76 315.91,-39.76"/>
<polygon fill="#333333" stroke="#333333" points="315.67,-41.51 320.67,-39.76 315.67,-38.01 315.67,-41.51"/>
<text text-anchor="middle" x="278.03" y="-42.56" font-family="Arial" font-size="9.00">block</text>
</g>
</g>
</svg>
